<?xml version="1.0" standalone="no"?>
<!DOCTYPE svg PUBLIC "-//W3C//DTD SVG 20010904//EN"
 "http://www.w3.org/TR/2001/REC-SVG-20010904/DTD/svg10.dtd">
<svg version="1.0" xmlns="http://www.w3.org/2000/svg"
 width="342.000000pt" height="232.000000pt" viewBox="0 0 342.000000 232.000000"
 preserveAspectRatio="xMidYMid meet">

<g transform="translate(0.000000,232.000000) scale(0.100000,-0.100000)"
fill="#000000" stroke="none">
<path d="M1763 1993 c-11 -15 -167 -318 -348 -673 -503 -989 -501 -986 -566
-1044 -45 -41 -70 -53 -146 -68 -41 -8 -53 -15 -53 -29 0 -18 15 -19 336 -19
311 0 335 1 332 17 -2 13 -22 20 -82 29 -79 13 -109 26 -91 42 6 5 44 35 85
68 41 32 109 88 150 124 41 37 158 138 260 225 102 87 224 194 272 237 48 43
94 78 101 78 13 0 263 -498 293 -583 41 -115 3 -168 -136 -192 -46 -7 -65 -15
-65 -25 0 -13 56 -15 419 -15 327 0 420 3 423 12 5 15 4 15 -90 37 -87 20
-145 60 -197 138 -45 67 -420 809 -420 830 0 14 98 96 140 118 13 7 71 16 127
20 123 8 98 -8 379 235 294 255 291 252 277 265 -7 8 -17 9 -26 4 -8 -5 -108
-90 -221 -189 -222 -193 -266 -224 -286 -200 -8 10 -8 19 0 34 6 11 106 106
223 211 116 105 214 196 215 201 8 22 -30 5 -76 -33 -27 -24 -110 -95 -183
-158 -220 -188 -237 -202 -262 -198 -32 5 -33 36 0 70 37 39 201 182 331 288
56 46 101 88 99 94 -8 24 -31 12 -125 -66 -55 -46 -130 -108 -168 -138 -37
-30 -98 -81 -135 -112 -49 -42 -76 -58 -97 -58 -33 0 -47 20 -29 43 16 20 175
152 327 272 158 124 146 113 133 126 -8 8 -45 -15 -140 -87 -351 -268 -464
-358 -474 -376 -7 -12 -8 -45 -4 -87 3 -36 2 -77 -3 -91 -13 -33 -60 -82 -74
-78 -6 2 -92 166 -192 363 -115 229 -187 361 -197 363 -10 2 -26 -9 -36 -25z
m76 -638 c62 -123 111 -231 109 -240 -4 -17 -788 -609 -796 -600 -6 6 62 144
293 595 235 456 255 493 269 481 7 -6 63 -112 125 -236z"/>
</g>
</svg>
